<svg width="98" height="30" viewBox="0 0 98 30" fill="none" xmlns="http://www.w3.org/2000/svg">
<mask id="path-1-outside-1_109_477" maskUnits="userSpaceOnUse" x="-0.0410156" y="0.115387" width="98" height="29" fill="black">
<rect fill="white" x="-0.0410156" y="0.115387" width="98" height="29"/>
<path fill-rule="evenodd" clip-rule="evenodd" d="M5.91029 1.21109C3.94302 2.05108 1.77481 4.41836 1.09257 7.39176C0.228086 11.1574 3.83087 12.7515 4.12993 12.2313C4.47105 11.6156 3.4804 11.4056 3.2748 9.45358C3.00844 6.92881 4.16731 4.10813 5.62058 2.87199C5.8916 2.6429 5.87758 2.96267 5.87758 3.55449C5.87758 4.61404 5.82151 14.1165 5.82151 16.0972C5.82151 18.7795 5.71403 19.629 5.51777 20.4643C5.31684 21.3138 4.99908 21.8865 5.24207 22.1061C5.5131 22.3543 6.6673 21.7672 7.33085 20.8174C8.12991 19.6815 8.41028 18.3165 8.46168 16.837C8.52243 15.0472 8.51776 12.217 8.52243 10.599C8.52243 9.11472 8.54579 4.77631 8.49906 2.16563C8.48037 1.53086 6.73739 0.862676 5.91029 1.21109ZM96.7836 15.3049C96.4985 15.3049 96.3677 15.6056 96.2602 16.1068C95.8864 17.8583 95.4939 18.2545 94.9845 18.2545C94.4191 18.2545 93.9098 17.3858 93.7789 15.6486C93.6761 14.2836 93.6901 11.7683 93.821 9.26744C93.849 8.75199 93.7088 8.24608 92.3537 7.74494C91.7696 7.53017 90.9191 7.2104 90.4986 8.25085C89.307 11.1765 88.8397 13.5008 88.7275 14.4458C88.7229 14.4936 88.6621 14.5031 88.6528 14.3933C88.5827 13.6345 88.4285 12.2599 88.4051 9.37244C88.4004 8.80926 88.2836 8.32722 87.6715 7.93585C87.2743 7.6829 86.0687 7.22949 85.6341 7.76881C85.2603 8.2079 84.821 9.38676 84.3678 10.7852C83.9986 11.9211 83.7463 12.6895 83.7463 12.6895C83.7463 12.6895 83.7509 9.62062 83.7556 8.46085C83.7556 8.02176 83.4612 7.87858 83.3724 7.84994C82.9706 7.73063 82.1762 7.53494 81.8397 7.53494C81.4238 7.53494 81.3257 7.76881 81.3257 8.11244C81.3257 8.1554 81.2603 12.1502 81.2603 14.9422V15.3383C81.0313 16.6222 80.2883 18.3643 79.4799 18.3643C78.6669 18.3643 78.2884 17.6388 78.2884 14.3074C78.2884 12.3649 78.3444 11.5202 78.3725 10.117C78.3865 9.3104 78.4192 8.68517 78.4192 8.54676C78.4145 8.11244 77.6762 7.89767 77.3351 7.81653C76.9893 7.7354 76.6902 7.70199 76.4566 7.71631C76.1248 7.7354 75.8912 7.95494 75.8912 8.2604C75.8912 8.42267 75.8912 8.7329 75.8912 8.7329C75.4659 8.05517 74.7837 7.58267 74.3258 7.44426C73.1015 7.07676 71.8211 7.40131 70.8538 8.77585C70.0875 9.86403 69.6249 11.1002 69.4426 12.8756C69.3071 14.1738 69.3538 15.4911 69.5875 16.6031C69.3024 17.8583 68.7697 18.3738 68.1903 18.3738C67.3492 18.3738 66.737 16.9754 66.8071 14.5556C66.8538 12.9663 67.1669 11.8495 67.508 10.2315C67.6529 9.54426 67.5361 9.18153 67.237 8.8379C66.966 8.5229 66.3819 8.36063 65.5454 8.55631C64.952 8.69949 64.0969 8.85222 63.3212 8.96676C63.3212 8.96676 63.3679 8.77585 63.4053 8.44176C63.6062 6.68063 61.723 6.82381 61.1202 7.38699C60.7604 7.72585 60.5174 8.12199 60.424 8.83313C60.2791 9.96426 61.1857 10.4988 61.1857 10.4988C60.8866 11.8829 60.1576 13.6918 59.4053 14.9995C59.0034 15.7011 58.6903 16.2213 58.2931 16.7702C58.2931 16.5649 58.2932 16.3597 58.2885 16.1545C58.2791 13.2431 58.3165 10.9522 58.3352 10.1265C58.3492 9.31994 58.3819 8.71381 58.3819 8.57063C58.3773 8.25563 58.195 8.13631 57.8165 7.98358C57.4801 7.84994 57.0875 7.75926 56.6763 7.72585C56.1623 7.6829 55.8492 7.96449 55.8586 8.29381C55.8586 8.35585 55.8586 8.73767 55.8586 8.73767C55.4334 8.05994 54.7511 7.58744 54.2932 7.44904C53.0689 7.08154 51.7885 7.40608 50.8212 8.78062C50.0549 9.86881 49.5549 11.4009 49.41 12.8661C49.2792 14.2311 49.3025 15.3908 49.4848 16.3693C49.2885 17.3477 48.7278 18.3738 48.0969 18.3738C47.2885 18.3738 46.8259 17.6483 46.8259 14.317C46.8259 12.3745 46.882 11.5297 46.91 10.1265C46.9287 9.31994 46.9568 8.69472 46.9568 8.55631C46.9521 8.12199 46.2138 7.90722 45.8727 7.82608C45.5129 7.74017 45.2044 7.71153 44.9661 7.73063C44.653 7.75449 44.4334 8.04085 44.4334 8.25085V8.74244C44.0082 8.06472 43.3213 7.59222 42.868 7.45381C41.6437 7.08631 40.3727 7.4204 39.4007 8.7854C38.7652 9.6779 38.2512 10.6659 37.9895 12.8518C37.9101 13.4818 37.8774 14.0736 37.8821 14.6272C37.6297 16.2022 36.5129 18.0111 35.6017 18.0111C35.069 18.0111 34.5597 16.9563 34.5597 14.7131C34.5597 11.7206 34.7419 7.46335 34.7746 7.0529C34.7746 7.0529 35.9288 7.03381 36.1531 7.02904C36.7279 7.02426 37.2512 7.03858 38.0176 6.99563C38.4007 6.97654 38.7699 5.57335 38.3774 5.40154C38.1951 5.3204 36.9241 5.25358 36.4195 5.24404C36.0176 5.22017 34.8353 5.12949 34.8353 5.12949C34.8353 5.12949 34.9428 2.30404 34.9662 2.00336C34.9849 1.75518 34.6671 1.62631 34.4896 1.54995C34.0456 1.35904 33.6531 1.26836 33.1858 1.1729C32.5363 1.03449 32.2466 1.16813 32.1858 1.72654C32.097 2.56654 32.055 5.03881 32.055 5.03881C31.5784 5.03881 29.9569 4.94336 29.4849 4.94336C29.041 4.94336 28.569 6.87154 29.1765 6.8954C29.8774 6.92404 31.1017 6.9479 31.9148 6.97176C31.9148 6.97176 31.8774 11.3006 31.8774 12.637C31.8774 12.7754 31.8774 12.9138 31.8774 13.0474C31.4335 15.4147 29.8587 16.689 29.8587 16.689C30.1952 15.1236 29.5083 13.9495 28.2653 12.9568C27.8074 12.5893 26.9055 11.8972 25.8915 11.1336C25.8915 11.1336 26.4756 10.5465 26.999 9.36767C27.3681 8.53244 27.3821 7.57313 26.4803 7.36313C24.9896 7.01472 23.756 8.12676 23.3915 9.31994C23.1064 10.2411 23.2607 10.9236 23.8167 11.6347C23.8541 11.6872 23.9008 11.7397 23.9476 11.7922C23.6111 12.4556 23.1485 13.3433 22.756 14.0306C21.6672 15.9445 20.8448 17.4574 20.2233 17.4574C19.728 17.4574 19.7326 15.9206 19.7326 14.484C19.7326 13.2431 19.8214 11.3818 19.8962 9.44881C19.9196 8.80926 19.6065 8.44653 19.0784 8.11722C18.7607 7.91676 18.0784 7.52063 17.6813 7.52063C17.0878 7.52063 15.3822 7.60176 13.7701 12.3458C13.5691 12.9424 13.1673 14.0354 13.1673 14.0354L13.2 8.33199C13.2 8.19835 13.1299 8.06949 12.971 7.97881C12.7 7.82608 11.971 7.52063 11.3261 7.52063C11.0177 7.52063 10.8635 7.66858 10.8635 7.95972L10.8075 16.8847C10.8075 17.5624 10.8262 18.3547 10.8916 18.6983C10.957 19.042 11.0645 19.3283 11.1953 19.4954C11.3261 19.6624 11.4804 19.7913 11.728 19.8438C11.9617 19.8915 13.242 20.0586 13.3074 19.5622C13.3869 18.9656 13.3916 18.3213 14.0644 15.9206C15.1112 12.1788 16.4757 10.3556 17.1158 9.70653C17.228 9.59199 17.3588 9.58722 17.3495 9.77335C17.3214 10.5943 17.228 12.6465 17.1626 14.3838C16.9897 19.042 17.8214 19.9058 19.013 19.9058C19.9242 19.9058 21.2093 18.9847 22.5878 16.6556C23.4476 15.2047 24.2793 13.7777 24.8821 12.7515C25.298 13.1429 25.77 13.5677 26.2373 14.0163C27.3261 15.0663 27.6812 16.0638 27.4475 17.0088C27.2653 17.7343 26.5831 18.4788 25.3681 17.7533C25.013 17.5433 24.8635 17.3811 24.5083 17.1377C24.3167 17.0088 24.0223 16.9706 23.8494 17.109C23.3962 17.4574 23.1345 17.9013 22.985 18.4502C22.8401 18.9847 23.3681 19.2663 23.9102 19.5145C24.3821 19.7293 25.3915 19.9202 26.0363 19.944C28.5457 20.0299 30.555 18.7127 31.9569 15.3145C32.2092 18.2497 33.2746 19.9106 35.1251 19.9106C36.3634 19.9106 37.6064 18.2831 38.1484 16.6843C38.3026 17.3381 38.5363 17.9061 38.8307 18.3833C40.2606 20.6838 43.0269 20.1874 44.4194 18.2354C44.8493 17.634 44.9147 17.4145 44.9147 17.4145C45.1157 19.2568 46.5783 19.9011 47.4147 19.9011C48.3493 19.9011 49.3166 19.4524 49.9941 17.9013C50.0736 18.0683 50.1624 18.2306 50.2558 18.3833C51.681 20.6838 54.452 20.1874 55.8399 18.2354C55.9053 18.1447 55.9614 18.0636 56.0128 17.9872L56.0548 19.1995C56.0548 19.1995 55.2605 19.9393 54.7745 20.3927C52.6296 22.3924 50.9988 23.9102 50.8773 25.6761C50.7231 27.9288 52.5222 28.764 53.882 28.8738C55.3259 28.9883 56.5642 28.1817 57.3212 27.0458C57.9894 26.0483 58.4287 23.8958 58.396 21.7768C58.3819 20.9272 58.3632 19.8486 58.3445 18.6888C59.0969 17.8011 59.9473 16.6747 60.7277 15.3622C61.5782 13.9256 62.4941 12.0022 62.9613 10.5036C62.9613 10.5036 63.7557 10.5084 64.6015 10.4559C64.8725 10.4415 64.9473 10.494 64.9006 10.6945C64.8398 10.9379 63.8305 14.8945 64.7511 17.529C65.3819 19.3331 66.8024 19.9154 67.6436 19.9154C68.6295 19.9154 69.5735 19.1613 70.0781 18.0349C70.1389 18.159 70.2043 18.2783 70.2744 18.3929C71.6996 20.6933 74.4613 20.1922 75.8631 18.2449C76.1809 17.8058 76.3585 17.424 76.3585 17.424C76.6575 19.3331 78.1201 19.9202 78.9566 19.9202C79.8257 19.9202 80.6528 19.5574 81.3257 17.9443C81.3538 18.6554 81.4005 19.2377 81.4659 19.419C81.508 19.5288 81.7556 19.672 81.9379 19.7388C82.7369 20.0395 83.5453 19.8963 83.8491 19.8343C84.0593 19.7913 84.2182 19.6195 84.2416 19.1852C84.2977 18.0349 84.265 16.0972 84.6061 14.6606C85.1808 12.2456 85.7182 11.3102 85.9752 10.8472C86.1154 10.5895 86.279 10.5465 86.2836 10.8186C86.2977 11.377 86.3257 13.0045 86.5453 15.1999C86.7089 16.8131 86.9285 17.7677 87.0967 18.0683C87.578 18.9322 88.1715 18.9704 88.6528 18.9704C88.9612 18.9704 89.6014 18.8845 89.5453 18.3356C89.5173 18.0683 89.5687 16.417 90.1341 14.0354C90.5079 12.4843 91.1247 11.0811 91.349 10.5704C91.4331 10.3795 91.4705 10.5322 91.4705 10.5609C91.4238 11.6299 91.3163 15.1236 91.7462 17.0374C92.3256 19.629 94.0079 19.9154 94.592 19.9154C95.8397 19.9154 96.863 18.9513 97.2088 16.4074C97.2742 15.7822 97.1527 15.3049 96.7836 15.3049ZM44.4334 13.7347C44.3633 15.0806 44.1016 16.207 43.6904 17.0231C42.9381 18.5027 41.4568 18.9704 40.8026 16.8322C40.3306 15.2906 40.4895 13.1906 40.6858 12.0547C40.9755 10.3699 41.7045 9.17676 42.8446 9.29131C44.0175 9.41062 44.583 10.9379 44.4334 13.7347ZM55.8586 13.7538C55.7932 15.0233 55.4661 16.3024 55.1156 17.0231C54.3866 18.5122 52.8586 18.9799 52.2278 16.8322C51.7979 15.367 51.9007 13.4722 52.1109 12.279C52.3866 10.7279 53.0595 9.29131 54.2698 9.29131C55.4474 9.29131 56.0268 10.6038 55.8586 13.7538ZM56.1576 22.4258C56.1436 24.7454 55.7838 26.7738 55.0128 27.3656C53.9193 28.2008 52.4521 27.5756 52.7558 25.8861C53.0268 24.3874 54.2932 22.8602 56.1576 20.994C56.1623 20.9893 56.1623 21.414 56.1576 22.4258ZM75.8772 13.7681C75.8117 15.1618 75.508 16.2547 75.1342 17.0231C74.4052 18.5122 72.8865 18.9752 72.2463 16.8322C71.8959 15.6677 71.8819 13.7156 72.1342 12.0881C72.3912 10.432 73.1061 9.17676 74.2931 9.29131C75.4566 9.40585 76.0033 10.9379 75.8772 13.7681Z"/>
</mask>
<path fill-rule="evenodd" clip-rule="evenodd" d="M5.91029 1.21109C3.94302 2.05108 1.77481 4.41836 1.09257 7.39176C0.228086 11.1574 3.83087 12.7515 4.12993 12.2313C4.47105 11.6156 3.4804 11.4056 3.2748 9.45358C3.00844 6.92881 4.16731 4.10813 5.62058 2.87199C5.8916 2.6429 5.87758 2.96267 5.87758 3.55449C5.87758 4.61404 5.82151 14.1165 5.82151 16.0972C5.82151 18.7795 5.71403 19.629 5.51777 20.4643C5.31684 21.3138 4.99908 21.8865 5.24207 22.1061C5.5131 22.3543 6.6673 21.7672 7.33085 20.8174C8.12991 19.6815 8.41028 18.3165 8.46168 16.837C8.52243 15.0472 8.51776 12.217 8.52243 10.599C8.52243 9.11472 8.54579 4.77631 8.49906 2.16563C8.48037 1.53086 6.73739 0.862676 5.91029 1.21109ZM96.7836 15.3049C96.4985 15.3049 96.3677 15.6056 96.2602 16.1068C95.8864 17.8583 95.4939 18.2545 94.9845 18.2545C94.4191 18.2545 93.9098 17.3858 93.7789 15.6486C93.6761 14.2836 93.6901 11.7683 93.821 9.26744C93.849 8.75199 93.7088 8.24608 92.3537 7.74494C91.7696 7.53017 90.9191 7.2104 90.4986 8.25085C89.307 11.1765 88.8397 13.5008 88.7275 14.4458C88.7229 14.4936 88.6621 14.5031 88.6528 14.3933C88.5827 13.6345 88.4285 12.2599 88.4051 9.37244C88.4004 8.80926 88.2836 8.32722 87.6715 7.93585C87.2743 7.6829 86.0687 7.22949 85.6341 7.76881C85.2603 8.2079 84.821 9.38676 84.3678 10.7852C83.9986 11.9211 83.7463 12.6895 83.7463 12.6895C83.7463 12.6895 83.7509 9.62062 83.7556 8.46085C83.7556 8.02176 83.4612 7.87858 83.3724 7.84994C82.9706 7.73063 82.1762 7.53494 81.8397 7.53494C81.4238 7.53494 81.3257 7.76881 81.3257 8.11244C81.3257 8.1554 81.2603 12.1502 81.2603 14.9422V15.3383C81.0313 16.6222 80.2883 18.3643 79.4799 18.3643C78.6669 18.3643 78.2884 17.6388 78.2884 14.3074C78.2884 12.3649 78.3444 11.5202 78.3725 10.117C78.3865 9.3104 78.4192 8.68517 78.4192 8.54676C78.4145 8.11244 77.6762 7.89767 77.3351 7.81653C76.9893 7.7354 76.6902 7.70199 76.4566 7.71631C76.1248 7.7354 75.8912 7.95494 75.8912 8.2604C75.8912 8.42267 75.8912 8.7329 75.8912 8.7329C75.4659 8.05517 74.7837 7.58267 74.3258 7.44426C73.1015 7.07676 71.8211 7.40131 70.8538 8.77585C70.0875 9.86403 69.6249 11.1002 69.4426 12.8756C69.3071 14.1738 69.3538 15.4911 69.5875 16.6031C69.3024 17.8583 68.7697 18.3738 68.1903 18.3738C67.3492 18.3738 66.737 16.9754 66.8071 14.5556C66.8538 12.9663 67.1669 11.8495 67.508 10.2315C67.6529 9.54426 67.5361 9.18153 67.237 8.8379C66.966 8.5229 66.3819 8.36063 65.5454 8.55631C64.952 8.69949 64.0969 8.85222 63.3212 8.96676C63.3212 8.96676 63.3679 8.77585 63.4053 8.44176C63.6062 6.68063 61.723 6.82381 61.1202 7.38699C60.7604 7.72585 60.5174 8.12199 60.424 8.83313C60.2791 9.96426 61.1857 10.4988 61.1857 10.4988C60.8866 11.8829 60.1576 13.6918 59.4053 14.9995C59.0034 15.7011 58.6903 16.2213 58.2931 16.7702C58.2931 16.5649 58.2932 16.3597 58.2885 16.1545C58.2791 13.2431 58.3165 10.9522 58.3352 10.1265C58.3492 9.31994 58.3819 8.71381 58.3819 8.57063C58.3773 8.25563 58.195 8.13631 57.8165 7.98358C57.4801 7.84994 57.0875 7.75926 56.6763 7.72585C56.1623 7.6829 55.8492 7.96449 55.8586 8.29381C55.8586 8.35585 55.8586 8.73767 55.8586 8.73767C55.4334 8.05994 54.7511 7.58744 54.2932 7.44904C53.0689 7.08154 51.7885 7.40608 50.8212 8.78062C50.0549 9.86881 49.5549 11.4009 49.41 12.8661C49.2792 14.2311 49.3025 15.3908 49.4848 16.3693C49.2885 17.3477 48.7278 18.3738 48.0969 18.3738C47.2885 18.3738 46.8259 17.6483 46.8259 14.317C46.8259 12.3745 46.882 11.5297 46.91 10.1265C46.9287 9.31994 46.9568 8.69472 46.9568 8.55631C46.9521 8.12199 46.2138 7.90722 45.8727 7.82608C45.5129 7.74017 45.2044 7.71153 44.9661 7.73063C44.653 7.75449 44.4334 8.04085 44.4334 8.25085V8.74244C44.0082 8.06472 43.3213 7.59222 42.868 7.45381C41.6437 7.08631 40.3727 7.4204 39.4007 8.7854C38.7652 9.6779 38.2512 10.6659 37.9895 12.8518C37.9101 13.4818 37.8774 14.0736 37.8821 14.6272C37.6297 16.2022 36.5129 18.0111 35.6017 18.0111C35.069 18.0111 34.5597 16.9563 34.5597 14.7131C34.5597 11.7206 34.7419 7.46335 34.7746 7.0529C34.7746 7.0529 35.9288 7.03381 36.1531 7.02904C36.7279 7.02426 37.2512 7.03858 38.0176 6.99563C38.4007 6.97654 38.7699 5.57335 38.3774 5.40154C38.1951 5.3204 36.9241 5.25358 36.4195 5.24404C36.0176 5.22017 34.8353 5.12949 34.8353 5.12949C34.8353 5.12949 34.9428 2.30404 34.9662 2.00336C34.9849 1.75518 34.6671 1.62631 34.4896 1.54995C34.0456 1.35904 33.6531 1.26836 33.1858 1.1729C32.5363 1.03449 32.2466 1.16813 32.1858 1.72654C32.097 2.56654 32.055 5.03881 32.055 5.03881C31.5784 5.03881 29.9569 4.94336 29.4849 4.94336C29.041 4.94336 28.569 6.87154 29.1765 6.8954C29.8774 6.92404 31.1017 6.9479 31.9148 6.97176C31.9148 6.97176 31.8774 11.3006 31.8774 12.637C31.8774 12.7754 31.8774 12.9138 31.8774 13.0474C31.4335 15.4147 29.8587 16.689 29.8587 16.689C30.1952 15.1236 29.5083 13.9495 28.2653 12.9568C27.8074 12.5893 26.9055 11.8972 25.8915 11.1336C25.8915 11.1336 26.4756 10.5465 26.999 9.36767C27.3681 8.53244 27.3821 7.57313 26.4803 7.36313C24.9896 7.01472 23.756 8.12676 23.3915 9.31994C23.1064 10.2411 23.2607 10.9236 23.8167 11.6347C23.8541 11.6872 23.9008 11.7397 23.9476 11.7922C23.6111 12.4556 23.1485 13.3433 22.756 14.0306C21.6672 15.9445 20.8448 17.4574 20.2233 17.4574C19.728 17.4574 19.7326 15.9206 19.7326 14.484C19.7326 13.2431 19.8214 11.3818 19.8962 9.44881C19.9196 8.80926 19.6065 8.44653 19.0784 8.11722C18.7607 7.91676 18.0784 7.52063 17.6813 7.52063C17.0878 7.52063 15.3822 7.60176 13.7701 12.3458C13.5691 12.9424 13.1673 14.0354 13.1673 14.0354L13.2 8.33199C13.2 8.19835 13.1299 8.06949 12.971 7.97881C12.7 7.82608 11.971 7.52063 11.3261 7.52063C11.0177 7.52063 10.8635 7.66858 10.8635 7.95972L10.8075 16.8847C10.8075 17.5624 10.8262 18.3547 10.8916 18.6983C10.957 19.042 11.0645 19.3283 11.1953 19.4954C11.3261 19.6624 11.4804 19.7913 11.728 19.8438C11.9617 19.8915 13.242 20.0586 13.3074 19.5622C13.3869 18.9656 13.3916 18.3213 14.0644 15.9206C15.1112 12.1788 16.4757 10.3556 17.1158 9.70653C17.228 9.59199 17.3588 9.58722 17.3495 9.77335C17.3214 10.5943 17.228 12.6465 17.1626 14.3838C16.9897 19.042 17.8214 19.9058 19.013 19.9058C19.9242 19.9058 21.2093 18.9847 22.5878 16.6556C23.4476 15.2047 24.2793 13.7777 24.8821 12.7515C25.298 13.1429 25.77 13.5677 26.2373 14.0163C27.3261 15.0663 27.6812 16.0638 27.4475 17.0088C27.2653 17.7343 26.5831 18.4788 25.3681 17.7533C25.013 17.5433 24.8635 17.3811 24.5083 17.1377C24.3167 17.0088 24.0223 16.9706 23.8494 17.109C23.3962 17.4574 23.1345 17.9013 22.985 18.4502C22.8401 18.9847 23.3681 19.2663 23.9102 19.5145C24.3821 19.7293 25.3915 19.9202 26.0363 19.944C28.5457 20.0299 30.555 18.7127 31.9569 15.3145C32.2092 18.2497 33.2746 19.9106 35.1251 19.9106C36.3634 19.9106 37.6064 18.2831 38.1484 16.6843C38.3026 17.3381 38.5363 17.9061 38.8307 18.3833C40.2606 20.6838 43.0269 20.1874 44.4194 18.2354C44.8493 17.634 44.9147 17.4145 44.9147 17.4145C45.1157 19.2568 46.5783 19.9011 47.4147 19.9011C48.3493 19.9011 49.3166 19.4524 49.9941 17.9013C50.0736 18.0683 50.1624 18.2306 50.2558 18.3833C51.681 20.6838 54.452 20.1874 55.8399 18.2354C55.9053 18.1447 55.9614 18.0636 56.0128 17.9872L56.0548 19.1995C56.0548 19.1995 55.2605 19.9393 54.7745 20.3927C52.6296 22.3924 50.9988 23.9102 50.8773 25.6761C50.7231 27.9288 52.5222 28.764 53.882 28.8738C55.3259 28.9883 56.5642 28.1817 57.3212 27.0458C57.9894 26.0483 58.4287 23.8958 58.396 21.7768C58.3819 20.9272 58.3632 19.8486 58.3445 18.6888C59.0969 17.8011 59.9473 16.6747 60.7277 15.3622C61.5782 13.9256 62.4941 12.0022 62.9613 10.5036C62.9613 10.5036 63.7557 10.5084 64.6015 10.4559C64.8725 10.4415 64.9473 10.494 64.9006 10.6945C64.8398 10.9379 63.8305 14.8945 64.7511 17.529C65.3819 19.3331 66.8024 19.9154 67.6436 19.9154C68.6295 19.9154 69.5735 19.1613 70.0781 18.0349C70.1389 18.159 70.2043 18.2783 70.2744 18.3929C71.6996 20.6933 74.4613 20.1922 75.8631 18.2449C76.1809 17.8058 76.3585 17.424 76.3585 17.424C76.6575 19.3331 78.1201 19.9202 78.9566 19.9202C79.8257 19.9202 80.6528 19.5574 81.3257 17.9443C81.3538 18.6554 81.4005 19.2377 81.4659 19.419C81.508 19.5288 81.7556 19.672 81.9379 19.7388C82.7369 20.0395 83.5453 19.8963 83.8491 19.8343C84.0593 19.7913 84.2182 19.6195 84.2416 19.1852C84.2977 18.0349 84.265 16.0972 84.6061 14.6606C85.1808 12.2456 85.7182 11.3102 85.9752 10.8472C86.1154 10.5895 86.279 10.5465 86.2836 10.8186C86.2977 11.377 86.3257 13.0045 86.5453 15.1999C86.7089 16.8131 86.9285 17.7677 87.0967 18.0683C87.578 18.9322 88.1715 18.9704 88.6528 18.9704C88.9612 18.9704 89.6014 18.8845 89.5453 18.3356C89.5173 18.0683 89.5687 16.417 90.1341 14.0354C90.5079 12.4843 91.1247 11.0811 91.349 10.5704C91.4331 10.3795 91.4705 10.5322 91.4705 10.5609C91.4238 11.6299 91.3163 15.1236 91.7462 17.0374C92.3256 19.629 94.0079 19.9154 94.592 19.9154C95.8397 19.9154 96.863 18.9513 97.2088 16.4074C97.2742 15.7822 97.1527 15.3049 96.7836 15.3049ZM44.4334 13.7347C44.3633 15.0806 44.1016 16.207 43.6904 17.0231C42.9381 18.5027 41.4568 18.9704 40.8026 16.8322C40.3306 15.2906 40.4895 13.1906 40.6858 12.0547C40.9755 10.3699 41.7045 9.17676 42.8446 9.29131C44.0175 9.41062 44.583 10.9379 44.4334 13.7347ZM55.8586 13.7538C55.7932 15.0233 55.4661 16.3024 55.1156 17.0231C54.3866 18.5122 52.8586 18.9799 52.2278 16.8322C51.7979 15.367 51.9007 13.4722 52.1109 12.279C52.3866 10.7279 53.0595 9.29131 54.2698 9.29131C55.4474 9.29131 56.0268 10.6038 55.8586 13.7538ZM56.1576 22.4258C56.1436 24.7454 55.7838 26.7738 55.0128 27.3656C53.9193 28.2008 52.4521 27.5756 52.7558 25.8861C53.0268 24.3874 54.2932 22.8602 56.1576 20.994C56.1623 20.9893 56.1623 21.414 56.1576 22.4258ZM75.8772 13.7681C75.8117 15.1618 75.508 16.2547 75.1342 17.0231C74.4052 18.5122 72.8865 18.9752 72.2463 16.8322C71.8959 15.6677 71.8819 13.7156 72.1342 12.0881C72.3912 10.432 73.1061 9.17676 74.2931 9.29131C75.4566 9.40585 76.0033 10.9379 75.8772 13.7681Z" fill="black"/>
<path fill-rule="evenodd" clip-rule="evenodd" d="M5.91029 1.21109C3.94302 2.05108 1.77481 4.41836 1.09257 7.39176C0.228086 11.1574 3.83087 12.7515 4.12993 12.2313C4.47105 11.6156 3.4804 11.4056 3.2748 9.45358C3.00844 6.92881 4.16731 4.10813 5.62058 2.87199C5.8916 2.6429 5.87758 2.96267 5.87758 3.55449C5.87758 4.61404 5.82151 14.1165 5.82151 16.0972C5.82151 18.7795 5.71403 19.629 5.51777 20.4643C5.31684 21.3138 4.99908 21.8865 5.24207 22.1061C5.5131 22.3543 6.6673 21.7672 7.33085 20.8174C8.12991 19.6815 8.41028 18.3165 8.46168 16.837C8.52243 15.0472 8.51776 12.217 8.52243 10.599C8.52243 9.11472 8.54579 4.77631 8.49906 2.16563C8.48037 1.53086 6.73739 0.862676 5.91029 1.21109ZM96.7836 15.3049C96.4985 15.3049 96.3677 15.6056 96.2602 16.1068C95.8864 17.8583 95.4939 18.2545 94.9845 18.2545C94.4191 18.2545 93.9098 17.3858 93.7789 15.6486C93.6761 14.2836 93.6901 11.7683 93.821 9.26744C93.849 8.75199 93.7088 8.24608 92.3537 7.74494C91.7696 7.53017 90.9191 7.2104 90.4986 8.25085C89.307 11.1765 88.8397 13.5008 88.7275 14.4458C88.7229 14.4936 88.6621 14.5031 88.6528 14.3933C88.5827 13.6345 88.4285 12.2599 88.4051 9.37244C88.4004 8.80926 88.2836 8.32722 87.6715 7.93585C87.2743 7.6829 86.0687 7.22949 85.6341 7.76881C85.2603 8.2079 84.821 9.38676 84.3678 10.7852C83.9986 11.9211 83.7463 12.6895 83.7463 12.6895C83.7463 12.6895 83.7509 9.62062 83.7556 8.46085C83.7556 8.02176 83.4612 7.87858 83.3724 7.84994C82.9706 7.73063 82.1762 7.53494 81.8397 7.53494C81.4238 7.53494 81.3257 7.76881 81.3257 8.11244C81.3257 8.1554 81.2603 12.1502 81.2603 14.9422V15.3383C81.0313 16.6222 80.2883 18.3643 79.4799 18.3643C78.6669 18.3643 78.2884 17.6388 78.2884 14.3074C78.2884 12.3649 78.3444 11.5202 78.3725 10.117C78.3865 9.3104 78.4192 8.68517 78.4192 8.54676C78.4145 8.11244 77.6762 7.89767 77.3351 7.81653C76.9893 7.7354 76.6902 7.70199 76.4566 7.71631C76.1248 7.7354 75.8912 7.95494 75.8912 8.2604C75.8912 8.42267 75.8912 8.7329 75.8912 8.7329C75.4659 8.05517 74.7837 7.58267 74.3258 7.44426C73.1015 7.07676 71.8211 7.40131 70.8538 8.77585C70.0875 9.86403 69.6249 11.1002 69.4426 12.8756C69.3071 14.1738 69.3538 15.4911 69.5875 16.6031C69.3024 17.8583 68.7697 18.3738 68.1903 18.3738C67.3492 18.3738 66.737 16.9754 66.8071 14.5556C66.8538 12.9663 67.1669 11.8495 67.508 10.2315C67.6529 9.54426 67.5361 9.18153 67.237 8.8379C66.966 8.5229 66.3819 8.36063 65.5454 8.55631C64.952 8.69949 64.0969 8.85222 63.3212 8.96676C63.3212 8.96676 63.3679 8.77585 63.4053 8.44176C63.6062 6.68063 61.723 6.82381 61.1202 7.38699C60.7604 7.72585 60.5174 8.12199 60.424 8.83313C60.2791 9.96426 61.1857 10.4988 61.1857 10.4988C60.8866 11.8829 60.1576 13.6918 59.4053 14.9995C59.0034 15.7011 58.6903 16.2213 58.2931 16.7702C58.2931 16.5649 58.2932 16.3597 58.2885 16.1545C58.2791 13.2431 58.3165 10.9522 58.3352 10.1265C58.3492 9.31994 58.3819 8.71381 58.3819 8.57063C58.3773 8.25563 58.195 8.13631 57.8165 7.98358C57.4801 7.84994 57.0875 7.75926 56.6763 7.72585C56.1623 7.6829 55.8492 7.96449 55.8586 8.29381C55.8586 8.35585 55.8586 8.73767 55.8586 8.73767C55.4334 8.05994 54.7511 7.58744 54.2932 7.44904C53.0689 7.08154 51.7885 7.40608 50.8212 8.78062C50.0549 9.86881 49.5549 11.4009 49.41 12.8661C49.2792 14.2311 49.3025 15.3908 49.4848 16.3693C49.2885 17.3477 48.7278 18.3738 48.0969 18.3738C47.2885 18.3738 46.8259 17.6483 46.8259 14.317C46.8259 12.3745 46.882 11.5297 46.91 10.1265C46.9287 9.31994 46.9568 8.69472 46.9568 8.55631C46.9521 8.12199 46.2138 7.90722 45.8727 7.82608C45.5129 7.74017 45.2044 7.71153 44.9661 7.73063C44.653 7.75449 44.4334 8.04085 44.4334 8.25085V8.74244C44.0082 8.06472 43.3213 7.59222 42.868 7.45381C41.6437 7.08631 40.3727 7.4204 39.4007 8.7854C38.7652 9.6779 38.2512 10.6659 37.9895 12.8518C37.9101 13.4818 37.8774 14.0736 37.8821 14.6272C37.6297 16.2022 36.5129 18.0111 35.6017 18.0111C35.069 18.0111 34.5597 16.9563 34.5597 14.7131C34.5597 11.7206 34.7419 7.46335 34.7746 7.0529C34.7746 7.0529 35.9288 7.03381 36.1531 7.02904C36.7279 7.02426 37.2512 7.03858 38.0176 6.99563C38.4007 6.97654 38.7699 5.57335 38.3774 5.40154C38.1951 5.3204 36.9241 5.25358 36.4195 5.24404C36.0176 5.22017 34.8353 5.12949 34.8353 5.12949C34.8353 5.12949 34.9428 2.30404 34.9662 2.00336C34.9849 1.75518 34.6671 1.62631 34.4896 1.54995C34.0456 1.35904 33.6531 1.26836 33.1858 1.1729C32.5363 1.03449 32.2466 1.16813 32.1858 1.72654C32.097 2.56654 32.055 5.03881 32.055 5.03881C31.5784 5.03881 29.9569 4.94336 29.4849 4.94336C29.041 4.94336 28.569 6.87154 29.1765 6.8954C29.8774 6.92404 31.1017 6.9479 31.9148 6.97176C31.9148 6.97176 31.8774 11.3006 31.8774 12.637C31.8774 12.7754 31.8774 12.9138 31.8774 13.0474C31.4335 15.4147 29.8587 16.689 29.8587 16.689C30.1952 15.1236 29.5083 13.9495 28.2653 12.9568C27.8074 12.5893 26.9055 11.8972 25.8915 11.1336C25.8915 11.1336 26.4756 10.5465 26.999 9.36767C27.3681 8.53244 27.3821 7.57313 26.4803 7.36313C24.9896 7.01472 23.756 8.12676 23.3915 9.31994C23.1064 10.2411 23.2607 10.9236 23.8167 11.6347C23.8541 11.6872 23.9008 11.7397 23.9476 11.7922C23.6111 12.4556 23.1485 13.3433 22.756 14.0306C21.6672 15.9445 20.8448 17.4574 20.2233 17.4574C19.728 17.4574 19.7326 15.9206 19.7326 14.484C19.7326 13.2431 19.8214 11.3818 19.8962 9.44881C19.9196 8.80926 19.6065 8.44653 19.0784 8.11722C18.7607 7.91676 18.0784 7.52063 17.6813 7.52063C17.0878 7.52063 15.3822 7.60176 13.7701 12.3458C13.5691 12.9424 13.1673 14.0354 13.1673 14.0354L13.2 8.33199C13.2 8.19835 13.1299 8.06949 12.971 7.97881C12.7 7.82608 11.971 7.52063 11.3261 7.52063C11.0177 7.52063 10.8635 7.66858 10.8635 7.95972L10.8075 16.8847C10.8075 17.5624 10.8262 18.3547 10.8916 18.6983C10.957 19.042 11.0645 19.3283 11.1953 19.4954C11.3261 19.6624 11.4804 19.7913 11.728 19.8438C11.9617 19.8915 13.242 20.0586 13.3074 19.5622C13.3869 18.9656 13.3916 18.3213 14.0644 15.9206C15.1112 12.1788 16.4757 10.3556 17.1158 9.70653C17.228 9.59199 17.3588 9.58722 17.3495 9.77335C17.3214 10.5943 17.228 12.6465 17.1626 14.3838C16.9897 19.042 17.8214 19.9058 19.013 19.9058C19.9242 19.9058 21.2093 18.9847 22.5878 16.6556C23.4476 15.2047 24.2793 13.7777 24.8821 12.7515C25.298 13.1429 25.77 13.5677 26.2373 14.0163C27.3261 15.0663 27.6812 16.0638 27.4475 17.0088C27.2653 17.7343 26.5831 18.4788 25.3681 17.7533C25.013 17.5433 24.8635 17.3811 24.5083 17.1377C24.3167 17.0088 24.0223 16.9706 23.8494 17.109C23.3962 17.4574 23.1345 17.9013 22.985 18.4502C22.8401 18.9847 23.3681 19.2663 23.9102 19.5145C24.3821 19.7293 25.3915 19.9202 26.0363 19.944C28.5457 20.0299 30.555 18.7127 31.9569 15.3145C32.2092 18.2497 33.2746 19.9106 35.1251 19.9106C36.3634 19.9106 37.6064 18.2831 38.1484 16.6843C38.3026 17.3381 38.5363 17.9061 38.8307 18.3833C40.2606 20.6838 43.0269 20.1874 44.4194 18.2354C44.8493 17.634 44.9147 17.4145 44.9147 17.4145C45.1157 19.2568 46.5783 19.9011 47.4147 19.9011C48.3493 19.9011 49.3166 19.4524 49.9941 17.9013C50.0736 18.0683 50.1624 18.2306 50.2558 18.3833C51.681 20.6838 54.452 20.1874 55.8399 18.2354C55.9053 18.1447 55.9614 18.0636 56.0128 17.9872L56.0548 19.1995C56.0548 19.1995 55.2605 19.9393 54.7745 20.3927C52.6296 22.3924 50.9988 23.9102 50.8773 25.6761C50.7231 27.9288 52.5222 28.764 53.882 28.8738C55.3259 28.9883 56.5642 28.1817 57.3212 27.0458C57.9894 26.0483 58.4287 23.8958 58.396 21.7768C58.3819 20.9272 58.3632 19.8486 58.3445 18.6888C59.0969 17.8011 59.9473 16.6747 60.7277 15.3622C61.5782 13.9256 62.4941 12.0022 62.9613 10.5036C62.9613 10.5036 63.7557 10.5084 64.6015 10.4559C64.8725 10.4415 64.9473 10.494 64.9006 10.6945C64.8398 10.9379 63.8305 14.8945 64.7511 17.529C65.3819 19.3331 66.8024 19.9154 67.6436 19.9154C68.6295 19.9154 69.5735 19.1613 70.0781 18.0349C70.1389 18.159 70.2043 18.2783 70.2744 18.3929C71.6996 20.6933 74.4613 20.1922 75.8631 18.2449C76.1809 17.8058 76.3585 17.424 76.3585 17.424C76.6575 19.3331 78.1201 19.9202 78.9566 19.9202C79.8257 19.9202 80.6528 19.5574 81.3257 17.9443C81.3538 18.6554 81.4005 19.2377 81.4659 19.419C81.508 19.5288 81.7556 19.672 81.9379 19.7388C82.7369 20.0395 83.5453 19.8963 83.8491 19.8343C84.0593 19.7913 84.2182 19.6195 84.2416 19.1852C84.2977 18.0349 84.265 16.0972 84.6061 14.6606C85.1808 12.2456 85.7182 11.3102 85.9752 10.8472C86.1154 10.5895 86.279 10.5465 86.2836 10.8186C86.2977 11.377 86.3257 13.0045 86.5453 15.1999C86.7089 16.8131 86.9285 17.7677 87.0967 18.0683C87.578 18.9322 88.1715 18.9704 88.6528 18.9704C88.9612 18.9704 89.6014 18.8845 89.5453 18.3356C89.5173 18.0683 89.5687 16.417 90.1341 14.0354C90.5079 12.4843 91.1247 11.0811 91.349 10.5704C91.4331 10.3795 91.4705 10.5322 91.4705 10.5609C91.4238 11.6299 91.3163 15.1236 91.7462 17.0374C92.3256 19.629 94.0079 19.9154 94.592 19.9154C95.8397 19.9154 96.863 18.9513 97.2088 16.4074C97.2742 15.7822 97.1527 15.3049 96.7836 15.3049ZM44.4334 13.7347C44.3633 15.0806 44.1016 16.207 43.6904 17.0231C42.9381 18.5027 41.4568 18.9704 40.8026 16.8322C40.3306 15.2906 40.4895 13.1906 40.6858 12.0547C40.9755 10.3699 41.7045 9.17676 42.8446 9.29131C44.0175 9.41062 44.583 10.9379 44.4334 13.7347ZM55.8586 13.7538C55.7932 15.0233 55.4661 16.3024 55.1156 17.0231C54.3866 18.5122 52.8586 18.9799 52.2278 16.8322C51.7979 15.367 51.9007 13.4722 52.1109 12.279C52.3866 10.7279 53.0595 9.29131 54.2698 9.29131C55.4474 9.29131 56.0268 10.6038 55.8586 13.7538ZM56.1576 22.4258C56.1436 24.7454 55.7838 26.7738 55.0128 27.3656C53.9193 28.2008 52.4521 27.5756 52.7558 25.8861C53.0268 24.3874 54.2932 22.8602 56.1576 20.994C56.1623 20.9893 56.1623 21.414 56.1576 22.4258ZM75.8772 13.7681C75.8117 15.1618 75.508 16.2547 75.1342 17.0231C74.4052 18.5122 72.8865 18.9752 72.2463 16.8322C71.8959 15.6677 71.8819 13.7156 72.1342 12.0881C72.3912 10.432 73.1061 9.17676 74.2931 9.29131C75.4566 9.40585 76.0033 10.9379 75.8772 13.7681Z" stroke="black" stroke-width="0.431045" mask="url(#path-1-outside-1_109_477)"/>
</svg>
